<svg width="217" height="217" viewBox="0 0 217 217" xmlns="http://www.w3.org/2000/svg"><g id="svgGroup" stroke-linecap="round" fill-rule="evenodd" font-size="9pt" stroke="#000" stroke-width="0.25mm" fill="#000" style="stroke:#000;stroke-width:0.25mm;fill:#000"><path d="M 0 217 L 146 217 L 217 145 L 217 0 L 163 0 L 91 71.5 L 73 71.5 L 0 145 L 0 217 Z M 2 146 L 53.5 146 L 53.5 181 L 91.5 181 L 91.5 75 L 144 75 L 144 215 L 2 215 L 2 146 Z M 147 73 L 215 5 L 215 145 L 147 213 L 147 73 Z M 163 2 L 214 2 L 144 72 L 93 72 L 163 2 Z M 73 74 L 89 74 L 89 109 L 55 143 L 4 143 L 73 74 Z M 56 145 L 89 112 L 89 145 L 56 178 L 56 145 Z M 89 148 L 89 179 L 58 179 L 89 148 Z" vector-effect="non-scaling-stroke"/></g></svg>